<?xml version="1.0" encoding="UTF-8"?>
<svg width="202px" height="50px" viewBox="0 0 202 50" version="1.1" xmlns="http://www.w3.org/2000/svg" xmlns:xlink="http://www.w3.org/1999/xlink">
    <title>logo</title>
    <g id="UI---2" stroke="none" stroke-width="1" fill="none" fill-rule="evenodd">
        <g id="Artboard" transform="translate(-96.000000, -254.000000)">
            <g id="logo" transform="translate(96.000000, 254.000000)">
                <g id="Group">
                    <path d="M15.7594076,32.6010629 C17.3176361,35.060514 20.1151619,35.4651256 23.5743401,34.1092958 L26.6803891,32.78469 L26.8445012,32.7112763 C28.425962,32.0135676 29.2515406,32.2336228 29.9598432,33.3863104 C30.5149993,34.2895775 30.4350806,34.9880296 29.4440889,35.846505 L29.2753303,35.9871991 C29.0985799,36.12938 28.8974822,36.2762073 28.6707362,36.4295397 L28.6071729,36.4745172 L26.3419428,38.1323653 L10.1918629,49.9571715 L15.7594076,32.6010629" id="Path" fill="#235AD2"></path>
                    <path d="M14.9217482,29.7730565 L7.63833441e-14,18.8944504 L20.1458284,18.8944504 L26.2715028,-8.8817842e-14 L31.3353739,15.3100044 L31.18929,15.4133411 C29.3112008,16.7409206 24.7941223,19.9333933 17.638426,24.9909453 L17.5696588,25.0509772 L17.4401162,25.1658371 C15.8367243,26.607533 14.9605924,28.1813736 14.9217482,29.7730565 L14.9217482,20.8190086 L14.9217482,29.7730565 Z" id="Path" fill="#CF1A45"></path>
                    <path d="M32.4382518,18.8944504 L32.4382518,18.8944504 L52.6838856,18.8944504 L36.2946072,30.8038217 L42.6098563,49.9571715 L29.3662146,40.3310585 C29.6619138,40.1115609 30.1040685,39.7837084 30.6924931,39.3471294 L30.798246,39.274645 C33.8399884,37.1543836 34.7269,34.3628053 32.984115,31.5275505 L32.9015943,31.3959634 C31.2043444,28.7541861 28.4947292,28.1077741 25.3959286,29.4706665 L25.2805111,29.5225207 L22.2532656,30.8136721 L22.1391491,30.8582779 C20.1579091,31.6110004 19.2092929,31.4485611 18.7310817,30.6575519 L18.6931668,30.592316 C18.2439495,29.7888544 18.4840772,28.9969159 19.7966023,27.8204385 L19.8412081,27.7804792 L32.4382518,18.8944504" id="Path" fill="#235AD2"></path>
                </g>
                <path d="M72.2225,39 C74.9875,39 77.2158333,38.2591667 78.9075,36.7775 C80.5991667,35.2958333 81.445,33.5166667 81.445,31.44 C81.445,30.25 81.2233333,29.2291667 80.78,28.3775 C80.3366667,27.5258333 79.7591667,26.8666667 79.0475,26.4 C78.3358333,25.9333333 77.5483333,25.5425 76.685,25.2275 C75.8216667,24.9125 74.9525,24.6441667 74.0775,24.4225 C73.2025,24.2008333 72.4091667,23.9675 71.6975,23.7225 C70.9858333,23.4775 70.4083333,23.1275 69.965,22.6725 C69.5216667,22.2175 69.3,21.6166667 69.3,20.87 C69.3,20.1233333 69.5391667,19.5516667 70.0175,19.155 C70.4958333,18.7583333 71.1083333,18.56 71.855,18.56 C72.6016667,18.56 73.2141667,18.7991667 73.6925,19.2775 C74.1708333,19.7558333 74.4566667,20.4383333 74.55,21.325 L74.55,21.325 L81.06,21.325 C80.99,18.735 80.1383333,16.8391667 78.505,15.6375 C76.8716667,14.4358333 74.7308333,13.835 72.0825,13.835 C69.4341667,13.835 67.2583333,14.5233333 65.555,15.9 C63.8516667,17.2766667 63,19.1083333 63,21.395 C63,22.5616667 63.2216667,23.5708333 63.665,24.4225 C64.1083333,25.2741667 64.6858333,25.9275 65.3975,26.3825 C66.1091667,26.8375 66.8966667,27.2283333 67.76,27.555 C68.6233333,27.8816667 69.4925,28.1558333 70.3675,28.3775 C71.2425,28.5991667 72.0358333,28.8383333 72.7475,29.095 C73.4591667,29.3516667 74.0366667,29.7016667 74.48,30.145 C74.9233333,30.5883333 75.145,31.16 75.145,31.86 C75.145,32.56 74.9,33.1375 74.41,33.5925 C73.92,34.0475 73.2433333,34.275 72.38,34.275 C70.5366667,34.275 69.5333333,33.295 69.37,31.335 L69.37,31.335 L63,31.335 C63,33.785 63.8458333,35.675 65.5375,37.005 C67.2291667,38.335 69.4575,39 72.2225,39 Z M89.145,18.035 C90.125,18.035 90.9533333,17.6966667 91.63,17.02 C92.3066667,16.3433333 92.645,15.5091667 92.645,14.5175 C92.645,13.5258333 92.3066667,12.6916667 91.63,12.015 C90.9533333,11.3383333 90.125,11 89.145,11 C88.165,11 87.3366667,11.3383333 86.66,12.015 C85.9833333,12.6916667 85.645,13.5258333 85.645,14.5175 C85.645,15.5091667 85.9833333,16.3433333 86.66,17.02 C87.3366667,17.6966667 88.165,18.035 89.145,18.035 Z M92.155,38.755 L92.155,19.225 L86.17,19.225 L86.17,38.755 L92.155,38.755 Z M103.39,38.755 L103.39,28.15 C103.39,26.89 103.7225,25.9158333 104.3875,25.2275 C105.0525,24.5391667 105.968333,24.195 107.135,24.195 C108.301667,24.195 109.2175,24.5391667 109.8825,25.2275 C110.5475,25.9158333 110.88,26.89 110.88,28.15 L110.88,28.15 L110.88,38.755 L116.83,38.755 L116.83,27.345 C116.83,24.7783333 116.135833,22.7483333 114.7475,21.255 C113.359167,19.7616667 111.545,19.015 109.305,19.015 C106.598333,19.015 104.626667,20.0416667 103.39,22.095 L103.39,22.095 L103.39,19.225 L97.405,19.225 L97.405,38.755 L103.39,38.755 Z M130.2,39 C132.533333,39 134.54,38.3816667 136.22,37.145 C137.9,35.9083333 139.008333,34.24 139.545,32.14 L139.545,32.14 L133.07,32.14 C132.743333,32.7933333 132.37,33.2483333 131.95,33.505 C131.53,33.7616667 130.946667,33.89 130.2,33.89 C129.01,33.89 128.105833,33.4408333 127.4875,32.5425 C126.869167,31.6441667 126.56,30.46 126.56,28.99 C126.56,27.52 126.869167,26.3358333 127.4875,25.4375 C128.105833,24.5391667 129.050833,24.09 130.3225,24.09 C131.594167,24.09 132.51,24.6733333 133.07,25.84 L133.07,25.84 L139.545,25.84 C139.008333,23.6466667 137.911667,21.9608333 136.255,20.7825 C134.598333,19.6041667 132.58,19.015 130.2,19.015 C127.33,19.015 124.990833,19.9191667 123.1825,21.7275 C121.374167,23.5358333 120.47,25.9566667 120.47,28.99 C120.47,32.0233333 121.368333,34.45 123.165,36.27 C124.985,38.09 127.33,39 130.2,39 Z M148.89,38.755 L148.89,12.855 L142.905,12.855 L142.905,38.755 L148.89,38.755 Z M161.525,39 C163.951667,39 165.888333,37.9733333 167.335,35.92 L167.335,35.92 L167.335,38.755 L173.32,38.755 L173.32,19.225 L167.335,19.225 L167.335,21.78 C166.005,19.9366667 164.0975,19.015 161.6125,19.015 C159.1275,19.015 157.021667,19.9541667 155.295,21.8325 C153.568333,23.7108333 152.705,26.1083333 152.705,29.025 C152.705,31.9416667 153.568333,34.3333333 155.295,36.2 C157.021667,38.0666667 159.098333,39 161.525,39 Z M163.065,33.82 C161.945,33.82 160.953333,33.4058333 160.09,32.5775 C159.226667,31.7491667 158.795,30.565 158.795,29.025 C158.795,27.485 159.226667,26.295 160.09,25.455 C160.953333,24.615 161.945,24.195 163.065,24.195 C164.185,24.195 165.176667,24.6091667 166.04,25.4375 C166.903333,26.2658333 167.335,27.45 167.335,28.99 C167.335,30.53 166.903333,31.72 166.04,32.56 C165.176667,33.4 164.185,33.82 163.065,33.82 Z M181.545,18.035 C182.525,18.035 183.353333,17.6966667 184.03,17.02 C184.706667,16.3433333 185.045,15.5091667 185.045,14.5175 C185.045,13.5258333 184.706667,12.6916667 184.03,12.015 C183.353333,11.3383333 182.525,11 181.545,11 C180.565,11 179.736667,11.3383333 179.06,12.015 C178.383333,12.6916667 178.045,13.5258333 178.045,14.5175 C178.045,15.5091667 178.383333,16.3433333 179.06,17.02 C179.736667,17.6966667 180.565,18.035 181.545,18.035 Z M184.555,38.755 L184.555,19.225 L178.57,19.225 L178.57,38.755 L184.555,38.755 Z M195.79,38.755 L195.79,29.515 C195.79,27.8816667 196.134167,26.7383333 196.8225,26.085 C197.510833,25.4316667 198.543333,25.105 199.92,25.105 L199.92,25.105 L201.39,25.105 L201.39,19.015 C199.056667,19.015 197.19,20.2983333 195.79,22.865 L195.79,22.865 L195.79,19.225 L189.805,19.225 L189.805,38.755 L195.79,38.755 Z" id="Sinclair" fill="#0C1C3A" fill-rule="nonzero"></path>
            </g>
        </g>
    </g>
</svg>